/* XPM */
static char *result[] = {
/* columns rows colors chars-per-pixel */
"100 100 71 1 ",
"  c #9D774A",
". c #A57A4C",
"X c #A97E4E",
"o c #A67F54",
"O c #A97F51",
"+ c #A68053",
"@ c #AC8355",
"# c #AE8659",
"$ c #AE895C",
"% c #B18757",
"& c #B08857",
"* c #B98A56",
"= c #B18659",
"- c #B48B5D",
"; c #BC8E5B",
": c #B7925E",
"> c #BD915D",
", c #B58E61",
"< c #B88F61",
"1 c #B69164",
"2 c #BB9364",
"3 c #BE9867",
"4 c #B79568",
"5 c #BD9669",
"6 c #BE996B",
"7 c #BD9B71",
"8 c #C1935E",
"9 c #C39662",
"0 c #C59966",
"q c #C99A66",
"w c #C09769",
"e c #C49C6C",
"r c #C99E6B",
"t c #C49E71",
"y c #C89F71",
"u c #C6A06F",
"i c #CAA16E",
"p c #D1A36E",
"a c #C6A172",
"s c #CBA474",
"d c #CDA877",
"f c #C6A478",
"g c #CDA678",
"h c #CEA97A",
"j c #D1A674",
"k c #D1A976",
"l c #D8AA76",
"z c #D0A77A",
"x c #D3AC7C",
"c c #D9AE7B",
"v c #D4B076",
"b c #D5B07E",
"n c #D8B07D",
"m c #CFAE81",
"M c #D4AE81",
"N c #D8AF82",
"B c #D5B283",
"V c #D9B484",
"C c #DCB886",
"Z c #D7B588",
"A c #DAB689",
"S c #D7B88A",
"D c #DDBA8C",
"F c #DEBD91",
"G c #E1BC8D",
"H c #E1BE91",
"J c #DFC092",
"K c #E4C08E",
"L c #E3C294",
"P c #E5C498",
"I c #E8C79A",
/* pixels */
"dddddddvfdffafdvddssau0ui0eerdyyyaeeee6uryas09sresyeyyeessreeaxcre0erewdxhshg7t76tttggtyttygy6tetagt",
"dddsuuaa37ufddffatea3uiidddikxkkddddsssdddssasxkzzsssszyysskkkxzduadkdykkxgma5546<5554ttywwteete7agt",
"hhhhddddddvdddvhxgxxsuuirrddaaereeueiausreersssakdyrrsdrryeerjkeeeesdsrjMAhMfwttttt774,4147t7e555665",
"vhhhdasdfaauafdbMxMMsudddsdurrssddausuusyddkdeerszyesdsdssersxxdruudssdxddaggttttgttyt6ee1,,,4164565",
"JKJCCCVCVbZvbhhbMMMMywpyur000askdsreue30udkkiuusykuikdsdrarssdsrueussgggadakxe65445teetmfgmmt4,,,55,",
"VBVSVVZSZVSJJSJJFDHGNzsyeyeeaasdiauisuusiuuruuussaudsrsuearaseredseakxkysddxz422,te1e4,t5eett67e7t75",
"aauuuaauuufuufsdggfgyypsdseeeedjrreaduskndkdiissjjikkijidkdkkgxVBkadxBVgxckxkeewet,,yt,,77$4ttftt64,",
"sfdshhhhuuuufuuutgggggqqeurdsrsssariueesdusdiiipru9esequee3ey90adae0eyytiieddye<7,47,7y1,t7tt7tyg5,,",
"0iiq90003uq008::X88888qpjjsisjjkxlxluqiiiiqipvpqMO<Oo8o2;1>>2-:&wOw<,<,,222<<www2w1<ww<2w5wteyyguu36",
"iiippvuri80>8088888888qqrirjjsqjjipiiuq0iiqippiiw998wow8-;2:222:O<8<<<11-<,-<<2<wwwww<59wwwywyywadds",
"ipiiu00000q08:8q88888q88qrrjjrriiiiqqqqq8iiipiipqww<8o8o--2-:2:-ow<w,<2,<<-<<<5<<<wsy<wwwwww<wwwutgh",
"0iii000ri000000088888qqqerirrjiiiiu09qqi0qq80i8pyOOOwww<-&:-:>>:88ooO<2292<2<<<9,<wyww<wyrw,-5wwa3et",
"iuupvi00q0::::88898888889rirrsr08iiu888q8q88i88pqOO8O-9<,-@&-#228O8o,,#45,<<<<-2=wwwww2www9,<wyyauuu",
"pvppivr0:0q88*:888qq9888>0reqrr9808888;88q888iipy.OOO=<<<-O#-O,-wO5<,$o,<,w<<2=<Oww<ww2y2<,,wyyw477u",
"0uiu0qqvqqqpprq88*88989q880q9qq9i08;88;8qq8iqpppzO<O-<2-&-@=,=1;wO<<oo#,2<w222-<-wwww2<ww<wwyyww:434",
"0080uq8880q8::0088888889q99q9888808888*88888888pq8<O,-=.===#--,#<oooo<<5<<w2<2<2ww2<<2wwwww2<<,<1444",
"vhhgggfgssggsssuaseqeiusyyysgzsyysgsayyyuueeuuidzyyyee03eereyeerwwtywyyye3e929e2<ww<wwwywwww2w59214e",
"bBZZAZMMBBMxMBBBxhjikkhbzcNcxNNBNNxzzzxxvllxllkxNlczxkdkddskkxxxxxMzzzzgadkkxw2ryypysyzzsMssszsyddas",
"mBBMVNMMBxMxMZBVbkdskkxhBVBBzxMMgzkggxxMbbbbbhddxMzxxxddssdsskkzhhxdzxxzddMxk29wyyywyyyymMzmzxyyddhx",
"BBBBNZBZBMxMhBBVZBkknVBBVVBxMNNxxxNMMMBxxxxbxxxxkkkzddssrdjxxnVxxdgggxMxdakzseyyyyyyyyyyNNMzzzMcssfh",
"ZZBZZBmmBBMMMMBBVBzklbxMnBxkxMxdMMcxxxhhxxxdxxkkgddddddddxBxxxkdVBxxxMxxkxkxne9jyzyywyyyyNNNNVxjMxxh",
"ZBZZZDFDAZZVBBMMBBkkxbmBBZBBMBBBMMMMxBBxkxxddkddsddkkdhhskkxxcxkBBBxVBBxNVcxj2esyzzNsNNNNNNNzxzxhghh",
"DDDZBBBZDAAAZZZZZBMxxxhBhhxhxBBhhxMxBBbxBbBbxBMMBbbbxbhbxxxkkkkdhhxBZVBBxxBxrwxkyzzzymlczzyydkxxBasB",
"FLLLFFDDDDAAZZZZDFCMxxmmZBbxBBMdZBBxhBbxBBVZVZZBBbBbxhbhxBnBVBMBBBxhxbxbxkkxk3rsyyyzpNNNNNzzdvlxDe,a",
"DDxxMZNcMhMBNxxdgzxzszzzMxgdhBBBnxkxkrdksxxadVxgszxzNNcNbbxkMhhxmzymzsdvzgzzgyygywgeagdxxzgyzzsyggyt",
"hxe62eweeeyaaayeytwywweret64aaeaue9ee3eywyt6ghw<wwewrsxNddaeee7tttyyyre60tytyyytyytyygggtyyywweayate",
"6aaaagayauakkdddzysyyzzssgaaaggkddudkadzyyyzMMyzsjkdysxxada5115154tteta5ttttttttyfwgya6646ttytaaeaay",
"hdaeeyyyksaauuueyysyyysettgdghxgerraaryryyyzzrwyeyksszcxxxg77tttw75,,566ee6665566e6gaaaggtttye66eaa6",
"ZBsaadszdsuusuidyrakaerdshy6tyeaerasdsaiyyyzly0eszdrudjkzmgtyttmetttt5,,14455455756,1,5atttw7tthgfga",
"ddttagyy0eeidkideeyreeadggywtszMaykssjsutaszgyysrzkdkdskymytt4,t5tt7tmmmfye54,,,5,t5t456t544545566tt",
"LDxdaayyeeeidiiiease0ujraeyytagwsskreyeqtsateeau0usxkdusgMgw5,,t227t5wt5mytt557t65514511522wttww6166",
"ddasaaya0eqijduiryyraxxjxMyeakszdjkssdskgxggMZZsdjcnlkcxkNy5w5tt<,wyo,t7o7tt7tt515,gat$ ,<1<25ty7114",
"zzsyryyrejssjksqiui0usp0ipiiidde9eseeiueeyyrwzzstwjyzzjyjygy020,5;,ty<<e5wt6tt64$4u61$,142554t7tt6tf",
">909rrppijirsjkkivpquivpuivpiiq>1&-::2:>2--<=,-,,-<,<<ww--00e36:<35<<w2<tt6tsff76344$$14y766ttttte7t",
"299qerrppjjrjjkkviiu00i0ppppipu221>-*:-:w2<5<<,-,,9,,-,,2<<,<2w052252wwyeeetuusffaeuue7at546tteetttt",
"88889qqprypssrrrqu0u0qiiuuiiuiq-*->--:--<<<2<<<--,<<22<,---<22,5yee02wywe54643ashhhdf6:7t64tt7677ttt",
"*8899q9prrjirruiq000iqi0qiiqrie&-&:06:&----<w<,<=#$$,544<<222<@-uee923e3e<,4eeu6uaaau33uf77afttt7t7f",
"8988989rirrirerriq80q8888808qr9@-&@:1>--#=,-<<-=,,$,$5,,w<,,,2<t923330e3<,2eayeeuuue3337aaafftffffa7",
"9988899qrerir9w00888;8q880qiij9.&-@&::2&O-,#-<,O,$$$#4,,2<<1,<=w2ue>2e01-2wyye6uu777667376677ttfff77",
"9e99e929q90r09er;88888qqi8qqrjrO&&&>2--@=@==9<,,5,,$o,44w255,<=w32:3q2-29w0004134444:43367445757ta77",
"8*;8;9q90q998999888;;888e999ry9*+&&-=O-===,,,===@O@=<<<222wow<w<51223360w221<<25:344,756t77567t77777",
"q999qii0risrr0rrppiqqqrr00qrrpjr3050<,5<20wt0w<2w255eeetww9www<w05233366,22w21<<376att6t557767ttffyy",
"jjikkxdxxnnVxxcckkkkkxxjdkvvzccnNNxMxzxglxzzzzxxxgggggsazzywwywyfttadgggmyyyyysstaasaaaagdxxddddzjzj",
"sjkxxxbVbxxxxxzkddddxxNNbbbhxxxxzMzxxzzgyyzxxxzzhxxxMxgamzz,wyywtttgsfhhMNzzzzzzdhBddxNxkzggddssjjjj",
"kgBVbMZZBxbbBbxxMmmMMMMMvxhhhvhdkxgsaasggzxMMxxgggzMxxdgszzwyyyyyatfatzMyyzzzzzjggxgsgxadddsdddiyzgy",
"xdkBhBVxhMBxhhhxMMMMxxmhxxbhhhddhxxggggkMMMxxxMBhxMxxxMhzNsywzysyattttxMNNNNxxzxgdxxxxzzusdsiiskyfhg",
"xkxxMBZxxMMMbhMMxhxhxhhhkxxkhdddygggdgggMMMMMMMMxbMMxxNNzNywwsyskdekMxVMllzzkzkkdxkxzkgxskdsdddzghhg",
"kxkkkxxMMMxMBBMhMMxMxxzMxxxxbbxBMMMxMxxMxxzzggxxxBZBBMNNNzywNyyzxxaxBMNzgzlzxcxxdBdsekakddsjkkszskky",
"ZxxkxbBBdxMxhxbBbbbhBbBZBBBZZbhhMMhdddbvxbbbxxxVbxxxxkkdkMr3rzsyaadMMxxxxssNxVG92zyyyyzzdrsdgadkazda",
"BnMdkxbxxbnxxdddhkddddknbxxBZZCSGDDDDDAJCCxxxxxxkkxcxkddkksaaytyaasgdBBMxdaksajsyyyyyzyydsarkaggzgag",
"kkkadjksskkkkjkkkkdisduiddfddhhhdhhhxxhhbhe30e90eerauueeaeeewwwyge66yyaaqsqee9rsrwyyjNww9eeehxMMgdaa",
"lxcnnBvlxvxkkddaidiiddkkdauasau6ssssdsauuauuaddddskxddkddysryzzzdyafhgshesadsskaygyxNzsyragetgxzgxy5",
"xkxvnxxxkkkkklxlkkdkdkdsdgsgdgsafsfdhhdfsduuusuuksdkaadasasdsszwaagdhxxakeekgasswzwzzwywasxsaxZMsxa5",
"dsadkdgdsssauuuusassidddMdsddfssdfdhvbSBCbuuudssseraauaayrszyyyzgsaeyyageerkararyyyzzyytskkedgzdgxat",
"LJJKHFHLLJLFJDSDDADDVVVSBBhhhhhhsafaaffddsuusdisreraksdaeryrryyxxstetyzxekzdkzdryyzxgzeyskksMggggxae",
"BBZZBZBmBBADSFDFJSFSSSDJSDSKFSSJJJDJKJJKKDdsuuuireyddsreesywwyyweta6tgawsdresr3eyyyyw0tjeekzaydaaMs6",
"dksaddgdsfaggggsdsaaassfauuuaaaadfshhmhMvkssuaaa3uiijpiiuduisxxkvduidjzzdkksijjazxxgMNMaszNAzzccccs9",
"xxxxkxdkBBhhmgxsddssddssassdkdauauasdfggkpiiiuuuuiiiiiuuriiurdiijpiiisayuiiuudirgyaeaxxzwyjlzjzsysda",
"55454514211636dsiiuiaiuuuuiiq00ruq03911>88qquijpijjsjjkksiiuiijiuppqriq:::*:2231,,<---2,<<<<229522et",
"54w54,,1&##$:3ssissjsiiiupiiquqqq0392>>>88888iiiipjijjvvjjiqqurripvpipq1----;--;2<w<<-<-<<<<<,<2<--,",
",146646692551eduiipjdipiii88qq988889888>*8888qqqisviiiii0ii8qeiqiqiirqq->:::<-<<<,<9<-<-O8<<2<,<,-,1",
"tett612433ee6edqiiiiiiiipp8pqrrrqq9qqq88888888iiiipiiiii0000iquqiqiirr9--*-2<=-*,,<<5<<-<,,<<w2<<<22",
"ueyeeeeeweyaeukippiiqiiiiippyr0w88<;99989990qq0pi0iiu0qiq0q8i88892q0qr2O--&:w<9=O<<<w<-%<ooo,2215<<-",
"66ee66e093600upi8iiiiiiipkppr9<998;;89999>>8>>;uiuiiq00qq88;88q09290rj9.--+&2<<=O==O<,-=<,w<o<1,w<<<",
"26666353e5554eaa0qqqrrrrprqpyqqqqqqq8>>;808qq>;9qqqrqqqq888*880qqqerrz0O-O=<w,Oo<,O<-<<-,,$#$,44ww9w",
"euaaaaaagyye66eeiiq0999qrq9wqwqwq90300>>>9>>9q99qqq999wq898;;899999qqg0=O=<9OO<OO<<8,--%@o@#$415<<,,",
"aaaaasaayagmgggd0eeyyssatyryyyyyueeeuue9>q>>0iuqreqe00rree938000999q0yrw,w9<<<9<,<w<<<<,5226w566ww52",
"xhxMBBNxMzmMxMBVBMVAZZMMZAZNmmmzhvxvvkddjidkkkkkxcNxMcMlkkzgkkkkkkxkzcNczMgzzzzsNNzNxzNxggsdggasssye",
"mgggMMMxMMNNZNMMBZmMmZZZmBZBMMMmhBBBBmxhdidlxklbxMcMxxzkddghhbxxxxxdxcckMxzMzsgzyyakxhgsxxhxxkgdcxr3",
"MMMNNVMmNNmmMmNDZZZNMZmMZZZBNmmmBBmBCSmxdxbbxbVBcxMxxzxkMmMMBmmBxBBdxxxjxzyzzyszyzxNMhxxgdxxkddaxxa9",
"DDAAAAZANZZZZNNNZZDDSZZNMmMBMMMmMmmMBZBmdhbbhbBbMNNccNMMMxxxhhhxMxbdxkjjxhsgkgggmzMNMzMBgdxxxxkxkxde",
"AAAAGGGGGGGZFDAGZBMZZZZADAZAAVZZMMMBBBBBhshBbbBbxxMNzxxzMMxMMhhxmhxdxiikaxhgggdxNMzMMxMMMVMMxMMMnNs5",
"AHZNZAZADAAADDDHHHHASSJZAZZZZZDFCVBbbxxxhhhhhbbbxxxbhvbhmhbbmmbbxxxxxxhbxbhmxxxxxdxxgdxbxBBMxMVVMMyw",
"HHFFFLDDDDDDDCDAAAGGLJJJHDCCANMNVvVSSDCDbmvhhhbvkxxbbvbmSbmbbhbSBZBBBbBSxxhfgxMMbxxbbxnngxxMxxxgghe2",
"GDGADDDDGGGGGDDDAAGNZBSSCGGGCGHGJJVSbBBCvbhhhbbVhbbhdddvbvhhvmvJbZZVSCbSVJJZVZBxVVBVnxxxxMxxxhxxxMay",
"xhMNxxvhxxBxxxkkzNjkxchxMBxssssshhdfddhhddvdddhhddhhddddfdfffvfddhhbbbdhvBSvMxdu30ee60eagaaytetteyew",
"gakxdddssdxdddsakksidkduuaaaygdxhvxbvbhvhhvbhvhhhdsddddafdddaaaaddauaaadfsafasaauddirrakafasagageyyg",
"kzxxxxkdxxxkdkkdcNjskvvvddhhgdhhbvxhbhbvSbbbbhhbBvdvhddsdddddddadfaaaffdddsafsdaeuiassdsxhhsaaaasjsg",
"xxkvnclxncncxxkcBxkxbCJJLLJJFSADvbvsffuavsffsuuuauaafddavdfdvhvffhhdhhddxBZbbBhaasdsjdaeyetyyasxsaua",
"xclxBnkxxkxljjccBxkcbaubZmmBSSSSCJJKKJKbJKKJKKDDSCCCbbbVbSJvbbhdhhdasau77sdshbd6skkraueasghhgteyayad",
"nkxvkxxkvkllljjcvkkvnvkxdssasdasffhVVSSDSZZbBBZSFFFFJFDDDFFHFFFFFFDDFFFLDDDHPHBfsaraeeersgauu0uu63su",
"CBVVnVVBnnvcncccVnvnnvvxbbBBvbhvxhhhvdddsdddggssmhfghhhhafaafagaggdgMhdkMMMxMmhgsssrieridssauuiisibd",
"GGDCGGDGVGGVCGHGGACCVBMBVVDAVVVCBbbbxbxhhhhhxxxkmfhhhgsygsddsdskdgueeeuuaskxzgssrrreeriissauiiuuiejs",
"ee60eewe99w0esywyeee6565aee6614334634367ee66ew556tsxgayjssiurassiurureuq092>9eqqeisiijiissddiiiirujd",
"22335555555<222145222155,,-,:,11311312251-&--==#$-eyyrpjdpiiripr0qqq00q>9;;;;9989rypyjkddjkkkkiiqrjr",
"26667ew555www22w55666666754<4442211122249336522452rjpsjyiipirrrirq9q99q99998888;99rqrriiiiiuiiqi9q00",
"554415512<12<<<2,4211124222wwwew666666ee4216525eeweyrssiryrsypsr>8qu0099q998;8899q0rrusdiieiiqqqqrrq",
"gtttw7twwwww525255222333<2w2235w2226eeaase6ee50arerjrrrrrqrrrsrririq9>9289q9899999wryruirrqriq089rq9",
"tfgaataa7t666e7w75t656545e666621119weweeueee0333eeudjipiprppjpprpi888>>;;9999998888qprqrjqqqq9898999",
"556666etyatt7ttetta7760ayyteee66525www5632366336323si008irqrrrirpiuqiiqq>99<89q99982qq9qrq909889;99q",
"506666512506565166666e6ge6etaassayaayytauaeeaaaeueeuuqire9e9eeer00390003re928888<qq99eq909009289;>29",
"eeee6eeytaaatyyt3e05666at66e662156eeeeteuaaaaagsaausiue900eeqrqeeqeieee0r0e99;<8<re0qqe08290q0908299",
"kkkkdxxkklkkkkdikckkxkssuafhhdfhddMMMMxxbZBxhmxxdxxMBMxMMVVVVBMMxxMmxxdxcxjkjpdjkjkkxxlnbvlxxddikkkk",
"xxvbvxcxxnnvvbvlcxkkkddafdhxbhhxgdxxxxhgdmbbhMBZAABMBxBBMMMMMNVVMMMMxxMBVBxxdudkxzkcnbxnnlddklkdkxxB",
"kkkkxvxcxcvlxcvlljjjddBvbhhbxbxhxBBbxMMxMMBMMhxMxBMZSSBBMMMMMMZZMMmMMmMMBBBxdsknxxNVZbxxBxhhdxkdxbbB",
"lxldiiilvvvkkkllcllxddDJCSBBDDSCCCDVZZVZDABZBBBZBBMMZSZSZDAZZBZmBZBBMMmmVBZVkdxVxbBBbhbbhxxbxxvbhhxh",
"xlxkkvdidjkvcxlikjcllvILLJDSJJDJJJDDADDZDDSLADSDASSZASZBZZZBBDZSAMMBNNNmNNBBxgkxBxBBBBmbmBxhxbxvbxhh",
"kkdkdvkkkiiuajlxkjpiusDFJFZDDJSCSCSCZAAZZZCAZAAZDDDDKDJDZADZZZBBAZZDAANNmmBMxgdkhMbhBhxxbhxxxxxkxhxx",
"kkjjsjdknvkdiiuukpppidLLPPFLLLJLJDSLDDLDVCZDADASDADAAADDFFLFDFZZVZZAAANNZZZVBMxxdhMxhhxxxxxxBxvxxxxx",
"nvdjjjplijkvkkdiuijipvIPIPPPLLJPLDDPLLDDLJSLDLDDSDSASZASAZFDFLDDGGVGAZZNZNMVBMxddxBBbhmBbxdxhxvddxvb"
};
