/* XPM */
static char *result[] = {
/* columns rows colors chars-per-pixel */
"100 100 67 1 ",
"  c #000000",
". c #0D0300",
"X c #130400",
"o c #1B0600",
"O c #170802",
"+ c #1D0900",
"@ c #230B00",
"# c #290E00",
"$ c #2E1101",
"% c #341300",
"& c #3A1600",
"* c #3F1800",
"= c #451B01",
"- c #4B1E01",
"; c #4F2000",
": c #542301",
"> c #5B2601",
", c #5F2802",
"< c #642A01",
"1 c #6C2E01",
"2 c #712F00",
"3 c #733202",
"4 c #7B3502",
"5 c #833903",
"6 c #8C3E03",
"7 c #833A08",
"8 c #8A3D09",
"9 c #903F01",
"0 c #903F09",
"q c #944102",
"w c #9B4502",
"e c #944209",
"r c #9C460A",
"t c #A04701",
"y c #A44902",
"u c #AC4D02",
"i c #A0470B",
"p c #A4490A",
"a c #AE4E0D",
"s c #B14F01",
"d c #B04F0D",
"f c #AF500E",
"g c #B45102",
"h c #BB5403",
"j c #B4510C",
"k c #BC540B",
"l c #C05704",
"z c #C55903",
"x c #CC5C04",
"c c #C1570A",
"v c #C5590A",
"b c #CB5C08",
"n c #D15F06",
"m c #D05E08",
"M c #D56106",
"N c #DB6405",
"B c #D56109",
"V c #DB6408",
"C c #E16705",
"Z c #E56904",
"A c #EB6B03",
"S c #E16608",
"D c #F26E02",
"F c #F67002",
"G c #FC7301",
"H c #FF7801",
"J c None",
/* pixels */
"JJJJJJJJJJJJJJJJJJJJJJJJJJJJJJJJJJJJJJJJJJJ 3hCDDDDADADAJJJJJJJJJJJJJJJJJJJJJJJJJJJJJJJJJJJJJJJJJJJJ",
"JJJJJJJJJJJJJJJJJJJJJJJJJJJJJJJJJJJJJJHM5;wNGGGGDDDDDFFGGGDAAAJJJJJJJJJJJJJJJJJJJJJJJJJJJJJJJJJJJJJJ",
"JJJJJJJJJJJJJJJJJJJJJJJJJJJJJJJJJJDDGDw#tZFGDDDDDDDDDDADDAADFFFZAJJJJJJJJJJJJJJJJJJJJJJJJJJJJJJJJJJJ",
"JJJJJJJJJJJJJJJJJJJJJJJJJJJJJJJJFFHHh 4ZGFFDDFDDDDDDDDDDADAAAAAADFZZJJJJJJJJJJJJJJJJJJJJJJJJJJJJJJJJ",
"JJJJJJJJJJJJJJJJJJJJJJJJJJJJJDFHGHZ2 zGFFFFFFFFFFDDDDDDDDADAAAAAAZAFDCJJJJJJJJJJJJJJJJJJJJJJJJJJJJJJ",
"JJJJJJJJJJJJJJJJJJJJJJJJJJJFFHFDGn :ZHFDFFFFFFFFFFFDFDDDDDDADAAAAZZZZAFZJJJJJJJJJJJJJJJJJJJJJJJJJJJJ",
"JJJJJJJJJJJJJJJJJJJJJJJJJFFHFFFGz 5FGDFGGFGFFFFFFFFFDDDDDDDDDDAAAAAZZZCZASJJJJJJJJJJJJJJJJJJJJJJJJJJ",
"JJJJJJJJJJJJJJJJJJJJJJJJFHFFFFHd tGGFGFFFFFFFFFFFFFFFFFFDDDDDADAAAAAZAZZSADSJJJJJJJJJJJJJJJJJJJJJJJJ",
"JJJJJJJJJJJJJJJJJJJJJJDHGFDGFHs yGGFFGFGFFGFGFFFFFFFFFFDDFFDDDDAAAAAAZZZZCSAZNJJJJJJJJJJJJJJJJJJJJJJ",
"JJJJJJJJJJJJJJJJJJJJJFHFDDGFGs yHGFGGGGFGGGGGFGFGFGFFFFFFDDDDDDDFAAAAAAZZZCCSANJJJJJJJJJJJJJJJJJJJJJ",
"JJJJJJJJJJJJJJJJJJJDHFFDFGDGz 9GGFGGGFGGGGFGFGGGFGGFFFFFFDDFDDDDAADAAZZZZZCCCCZVJJJJJJJJJJJJJJJJJJJJ",
"JJJJJJJJJJJJJJJJJJDHFFGGFFHN 3FGFGGGGGGGGGGGGGFFFGFGFGFFFFFDDDDDDFAAAAAZZZCCCCCVABJJJJJJJJJJJJJJJJJJ",
"JJJJJJJJJJJJJJJJJFHFFFFGFGA+%AGGGGGGGGGGGGGGGGGGGGFGFGFFFFDFDFDDDAAAAAAAZZZCSCNVVZBJJJJJJJJJJJJJJJJJ",
"JJJJJJJJJJJJJJJJDGFFFGFGGG4 NGGGGGGGGGGGGGGGGGGGGGGFGFGFFFFFFDDDFAFAAAAAZZZZZZZZSVAVJJJJJJJJJJJJJJJJ",
"JJJJJJJJJJJJJJJFFFFFFGFFHg sHFGGGGGGGGGGGGGGGGGGGGGGGGGFGFGFDFFDDDDDAAAZAAAZBzsy653qrJJJJJJJJJJJJJJJ",
"JJJJJJJJJJJJJJFGFGFFGFFHC 1GGGGGGGGGGGGGGGGGGGGGGGGGFGGFHFFFDFFDDFDAADDDClw2&         JJJJJJJJJJJJJJ",
"JJJJJJJJJJJJJDGFFFGFGGFG4 NHFGGGGGHGGGHGGGGGGGGGGGGGGGGGFGFFFFFFDADFFZh6*    =5yhvxxvlgJJJJJJJJJJJJJ",
"JJJJJJJJJJJJDGFFFGFFGFGz tHGGGGGGGGGGGGGGGHGGGGHGGGGGGGFGFGFFFFDFGFxq&    :wzNZAZCVNNVSbJJJJJJJJJJJJ",
"JJJJJJJJJJJDHFFFFFGGGGD=#DGGGGGHGGGGGGGGGGGGGGGGGGGGGGGGGGFFFFGGAh1    &qzZAAZCCNNNBMBbCmJJJJJJJJJJJ",
"JJJJJJJJJJDHDFFFFGGFGHg hHGGGGGGGHGGGHGGHGGGHGGGGGGGGGGGGFGFGGZu=    <gCADAAZZCCCCNNMMMMVJJJJJJJJJJJ",
"JJJJJJJJJJHFDFFFFGGDGDo-FGGGGGGGGGGHGGGGGGGGGGHGGGGGGGGGGGGHAy#    4zAFFAZZAAZZCCNNNNBMbBbJJJJJJJJJJ",
"JJJJJJJJJDDDFFGFGFGGHs lHGGHGHGGGGGGGGGHGGHGGGGGGGGGGGGFGHDy@    9NFHFAADAAAZZZCCCNNNMBnmMbJJJJJJJJJ",
"JJJJJJJJDHDFFFFGFGGGD&&DGGGGGGGGGGGHHGGGGHGGGGGGGGGGGGGHDh& .  wNGGDDDADAAAZAZZCCCNNMMMMBbVJJJJJJJJJ",
"JJJJJJJJGFFFFFFGGFGHz sHGGGHGGGGGHGGGGHHGGGHHGGGGGGGGHGb:    9CGGDDDDDDDAAAAZZZZCCCVNMMMbbbbJJJJJJJJ",
"JJJJJJJDDDGDFFGFFGGG1 AHGGGGGGGHHGGGHHGGGHGHGGGGGGGHHC5    6CHGFFFFDFDDAAAAAZAZZCCCVNNBBmmbMvJJJJJJJ",
"JJJJJJDHDFGDFFFGGGGN 9HGGGGGGGHGGGHGGGGHGHGGGHHGGFHGu    3nGGFFFFFFDFDDDDAAAAZZCCCCNNMMMmmbbBJJJJJJJ",
"JJJJJJZFDDDDGFGFGGGy nHGGGGGGHHGHHGGGGGHGGHGGGHGHHM: o -zGHGGFGFFFFFDFAAAAAAAZZZCCNNNMMBmmmbmvJJJJJJ",
"JJJJJ,DFDDFFFFFGFGD&-FGGGGGHGGGGGGGHHHGGHGGGHGGHDw    uDHGFGGGGFFFDFDDFDADAAAZZZZCCNNMMMmmbbvBJJJJJJ",
"JJJJJ<DDFFFFFGFGGGn yHGGGHGGHGGHHGGGGGGHGGHHGGHN- . 4ZHGGGGGGGFFFFFFDFDFFADAAZZZZCCNNNMBMbbvvmvJJJJJ",
"JJJJw5DDDFFFFFGFGHw NHGHGGGGHGGHGGHHGHGGHGGGHHy   %zGGGGGGGGFGGFGFFDDDDAAAAAAZZZCCCCNVMMmmmxvvmJJJJJ",
"JJJJh3GDDFFFGGFGGD-=DGGGGGGGGGGGGHGGHGHGGGHHZ<   9DHGGGGGGGGGGGFFFDFFDFDFAAAAZZZZCNNNNMMmmmbbvmkJJJJ",
"JJJJz2GDDFFFGDGFGN wHGGGGGHGGHHGGGHGGGHGGHHz   %xHGGGGGGGGGGFGFGGFFFFDAFADAAAZAZCCCNVNMMMmbbbvvkJJJJ",
"JJJFh2GDDFFGFGFFHs xHGGGGGGHGGGHHGGGHGHGHGq X 5DHGGGGGGGGGGGGGGFFFFFFFDDADAAAZZZZCCNNNMMnmbbbvvbkJJJ",
"JJJHu>DDFDFFFFGGG4 AHGGGGGGGHHGGHGHGGGGHZ>   hHHGGGGGGHGGGGGGFFGGFFFFDFADADZAZZZCCCCNVMMnmbbbvvvcJJJ",
"JJZHs#DDDFFFFGGGD <GGGGGGHGGGGHGGHGHGHHz   -NHGGHGGHGGGGGGGGGGGFFFFFDDDDDAAAAZZZZCCNNMMMnmbbvvvvcJJJ",
"JJAGz ZDDFFFFFFGN yGGGHGGGGGGHGGGGGGHD6 @ 5DHHHGGGGGHGGGGGGGGGFGFFFFFDDDADAAAAZZCCCNNNVMMnbbbvvkbkJJ",
"JJDDn nGDFFFFGFHg zHGGGGGGGHGHGHHGHHn=   sHGGHHGGGGGGGGGGGGGFFGFFFFFFDDDDADZAZZZZCCNVNMBmmbbvvvvckJJ",
"JJGDN yGDDFFFFFG9 CHGGGGGGGGGHGGGHDw . &NHHGGGGGGGGHGGHGGGGGGGGFFFFFDDDDDAAAZAZZCCCNNNMMMbbbbvvkckJJ",
"JAFDA=;DDFFFFGFG>%DGGGGGGGGGGGHHHx= # 5DHGGGHGGHHGGGHGGGGGGGGGFFFFFFDDDDDDAZAAZCCCCNNNMBnmmbvvvkkvJJ",
"JADAD9 zGDDFFFGA 4GGGGGGGHGGGGHZ5 .  sHHGGHHGGGHGGGGGGGGGGGGFGFGFFDFDDDAAAAAZZZZZCNNNMBMnmbvxvvvkvfJ",
"JAAAFv >AGDGDFGN yHFGGGGHGGGHDy  % :NHHGGGGHHGGGGGGGGGGGGFGGGFFFFFFFDDDDDAAAAZZZCCNNNMMMmbbxvvvkkvfJ",
"JDAAAD> 6GDDGDGz hHFGGGGGHHDg% #  wGHGGHGHGGGGGGGGGGGGGGGGGFFGFGFDFDDDDDDAAAZZCZCCCVNMMMmmbvbvhkkkkJ",
"JGAAAFz  9DHDDHu nHGGGGHHZs& X@ >nHHGGGHHGHGGGGGGGGGGGGGGGGGGFFFFFDFDDDAAAAZAZZCCCNNNMMmmmbbvvvkkkfJ",
"ZFZAAAFw  >zDGH9 ZHGGGDnq. .@ XsFHGGGHGGGGGGHGGGGGGGGGGGGGFFFFGFFFFDDDADAAAAZZZCCCNNMMMMmmbvvvkkkkkJ",
"ADAAAADDq   <yz< NZNh9=  +   tAGGGGGGGGGGGGGGGGGGGGGGGGGGGFGGFGFFDFDDDADDAAZZZZZCCNVNBmmbbbvvvvkkjkJ",
"ZAAAADADFh=     O#.       :uAGGGGGGHGGGHGGHGGGHGGGGGGGGFGFGGFFFFFDDDDDDAAZZAZZZNCNNNMMMmmbbvvvkkkjcJ",
"ZAZAAAADDFZg4% O      @<tnDHHGGGGGGGHGGGGGGGGGGGGGGGFGGGFGFFFFFFFDFDDADAAAAZZZCZCCVMNMBmmbvvvvkkjjcf",
"ZAAAAADADDFGGZz <hggzNZGHGGGGGGGHGGGGGGGHGGGHGGGGGGGGGGGGFGFFFFFFDDDFAAAAAAZZZCCNNNNBMmmbbbvvhkkkjkf",
"ZAZAAAAADDDDDGN wHGHGGGGGFGGGGGGGGGGGGGGGGGGGGGGGGGGGGFFGFFFFFFDDFADADADAAZZZZCCNNVVMMMbbvbvcckkjjcf",
"SZZZAAAAADADDGM sGDGDGDGGGGGGGGGGGGGGGGGGGGGGGGGGGGGGGGGGFGFFFFFDDDDDAAAAZZZZCCNNNMMBmmmbbvvckkkkf4O",
"ZZZAZAAAADDDAGz hGFDGGFGFGGGGGGGGGGGGGGGGGGGGGGGGGGGGGGGFFFFFFDDFDDDAAAAAZZZCCCNCNVMMnmbbvvccccf7O  ",
"SZZZAAAAADDDDGh zGDGDGGFGGGGGFGGGGGGGGGGGGGGGGGGGGGGFGFFGFFFFDFDDFADAAAAZAZZZCCCNVMMMmbbbvvbvf7$ O  ",
"ZACZAZAAADDDAGg zGDDFFDGFGGGGGGGGGGGGGGGGGGGGGGGFGGGFGGFFFFFDFDDADDAAAAAZZZCCCCNVMMMmmmbmmvp3O    ,8",
"qZACCAZAAAAADGg xGDGDGFFFFFGFGGGGGGGGGGGGGGGGGGFFGFGFFFFFFFFFDDDDDAAAAAZAZZCCCNNNMMnmmBbj8-  X  %7kJ",
" 1nAAZAAAAADAGu MGDGFFFGGFGFGFGGGFGGGGGGFGGGGFGDGGGFGFFFFFDDDDDDADAAAAAZZZCCCNNVVVVMbg6:   X  =8ffkJ",
"$  6xZAAAZAAAFy MGDDDFFFFFFGFGFGGGGFFGGGGGGFGFGGFFFFFFFFFDDDDDDDDAAAAZZZCCCZCZCNMly4-   X   10jjffjJ",
"  +  <ynZDDAADw nFDDDFFFDGFFFFFGFGGFGGFGFGFGGFGGFFFFFFDDDDDDDDDAAAAAAAAAAZCVxgw3=        :0fckjdfffJ",
"J4  X   >wzNAHt NGDDDDDDDFDDFFFFFFFFFGFFGFGDGDDDFFFDDDDDDDDDDFDDFFAACNxhy61=         @<qdcccjjjdfjfJ",
"JAh3   .   @<t3 zDAFGGGGGGGGGGGGGGGGGGGGGFGGGGGGGGGGHGGGGDDACNnluw53;#           @>7ycbvcccjjjjdfjfJ",
"JNZCny1         +=<56wggzxMNNNCCZAADDADADDAAZCNNNnxhhstq54>=$               #:4wgvbBBbvvcccckjfdfkfJ",
"JVCNZAZMg5;    .              X$%====-=-===%@X                        *<4qalxMVNVmbbvbvccjjjjjfffkfJ",
"JVANNCSZAACMgw: +                                           .=-15eugzxNNZZCCNMMbbbbbvvvccccfjjfffkJJ",
"JJAVNCCCCCZAAFg gMzgsw654<:-==%@X          X@%=-:>1459wughzMNZZZAAAAAZZCNNVMMBMMnbbvvvcccjjkffffffJJ",
"JJMVNNNCCCCZZAg hFDDFFDFDDAAAAZCNNNNNMNNNNNNZZAZAADFFDFFFDDDAAAZZCCCCCNNNVVMMMbmbbbbvcckckjjffffkfJJ",
"JJVCVVNNCCCZCAz uAAAZAAAAFDDFFFFDGDDFFDGDDGDDDDDDDDAAAAAAAZAZZZZZZZCCCNNVnNVnnbnbbbvvckkkjjjajaacJJJ",
"JJJZVVNNCCCCCAx qAZAAAAAAAAFAAAADDDDDDDDDDDDDADDDADAAAAAZAAZZZZZZZCCNCNVNVnnnnbbbvvcvkkkkjjdaaddfJJJ",
"JJJMMNNNCNCCSZN 3AZAAAAAAAAADADADAADDDDDDDADDDDAADAAAAAAAAZZZZZCCCCCNNVVVnnnnnbbbzvvckhjjjaddddkfJJJ",
"JJJMCMVNNNNCCCN-=CZZZZAAAAAAADAAADAAAAAAAADAAAAAAAAAAAAZZZZZZZZZCNNNNNNMVmnmbbbbvvvckkkkjjddddakJJJJ",
"JJJJCMMVNNNNNCZ4 MZZZAAZAZAAAAAAAAAAAAAAAAAAAAAAAAAZZAZZZZZZCCCCCNNNVMNMnmnmbbbbvvckkkjjddddddjaJJJJ",
"JJJJnMMnMNNNNNZq hAZCZZZZAZAZAAAAAAAAAAAAAAAAAAAAZAZZZAZZZCCCCCCNNNVNMMnnnmbbvvvvcckkkjjddddadkaJJJJ",
"JJJJmSnVBMMNCNAg wAVCZZZZZZZZAZAAAZAAAAAZAAAAZAAZZZZZZZZCZCCCCNNNNVMMMMnnbbbbvvvcckkjjjjddddffjJJJJJ",
"JJJJJmnnBNNMMbMl 2ZAZZSCZZAZZZZZZAZAZAZAAACAZCACZZZZZCZZCCCCCNNNVVMMMMMbnbbbvbvvkkkkjjjdddddfkfJJJJJ",
"JJJJJbVmVv9>&@@=OXqhmSAACCZZZZZZZZZZAZZZAZZZZZZZZZZZCCCCCCCNNNNNNMMMMnmbbbbvvvccckkjjfdddddddjJJJJJJ",
"JJJJJJbVuO       .  .<wlNAZCCCZZCZZZZZZZZZZZZZZZZZCCZCCCNNNNNVnVMMnnnbbbbbbvvcckkkjjjddddddfkfJJJJJJ",
"JJJJJJJz  4ygkll9 &=    :wzCACCCCZCZZCZZCCZCCCCCCCCCCNNNNNNNVMBMBMnmbbbbbbvvcckkjjjjdddddddfjJJJJJJJ",
"JJJJJJJ:-kmVVBVNm.*xhq<    2uNZZCCCCCSCCCCCCCCCCNCCNCNNNNNVVVMMnnnnbbbbbvvcclkkkkjddddddddfkfJJJJJJJ",
"JJJJJJJJvmbbbmnnV4 gCNNzy1   =ebZZNNCCCCCCNCNCNCCNNNNNVNMVVMnnnmbmbbbzbvvcckkkkjjjddddddffjfJJJJJJJJ",
"JJJJJJJJbVbbbmmnBu 1VMVNVVzw:   7zZZNNNNNCCNNNNNNNVNMNMVMnnnmnnmbbbbbvvvcchkkkjjddddddddffkJJJJJJJJJ",
"JJJJJJJJJbbbbbnbBb* hVMBMNNCBg4   4hCSNNNNNNNVNMVVMNMVnMnMnnmmnbbbbbvvvccckkkjjjdddddddddcjJJJJJJJJJ",
"JJJJJJJJJJbbbbbbbB8 6BnMMBBMNNNlq@  3hVNNMVNVNMMMVMMMnMnnnnmmbbbbbvvvccckkkkjjjaddddddddjdJJJJJJJJJJ",
"JJJJJJJJJJJBbvbbbnh @vMnnMMmMMMBNzq&  3hVVBMBMMMBMnBmmmmmmbmbbbbvvccccccckjjjfdddddddddffJJJJJJJJJJJ",
"JJJJJJJJJJJcmbvvbvb4 6BbmmMmnBMMBMVbw&  2hMVMMBMnmnBmmmmbbbmbbvvvvccckkkjjjfjdddddddffdkJJJJJJJJJJJJ",
"JJJJJJJJJJJJcmvbvbbk +lnbbmBmMbMMnbBVbq%  3hMMMbmmmmmbbbbvbvvvvvvccckjcjjjjdddddddddffcJJJJJJJJJJJJJ",
"JJJJJJJJJJJJJcbcvvvb4 7bbxbbbbbbbMbBbBBve$  4kBmbbbbbbvbvbbvvccccckkkkjjjjddddddddddfkfJJJJJJJJJJJJJ",
"JJJJJJJJJJJJJJkbvvvvkX jbbbbbbbbbbbbbbbbBlq+  7hBbbbbbvvvvvvccckckkkjjdjddddddddddffcfJJJJJJJJJJJJJJ",
"JJJJJJJJJJJJJJJcbkccb6 <vbvvbbbxbbbxbbbbbmBk6O  4gbbvvvvvvcckcckkjkdjjdddddddjddddfkfJJJJJJJJJJJJJJJ",
"JJJJJJJJJJJJJJJJkbkckc: qbvvvbvvvbvxbbbbbvbbbk6+  1pvbvcccckckkkjkjdjdddddddjfffddcfJJJJJJJJJJJJJJJJ",
"JJJJJJJJJJJJJJJJJkbkkvp  jvvvvvvvbvvvvvvvvvvvvvh8&  ;8fccckkjkjjjjddddddddddffffdkJJJJJJJJJJJJJJJJJJ",
"JJJJJJJJJJJJJJJJJJkvkkc8 :kcccccvvvvcvvvvvvvvvkvvke:   :7ifkkkjjddfffjddfffjjjfjaJJJJJJJJJJJJJJJJJJJ",
"JJJJJJJJJJJJJJJJJJJJkckk1 4ckcccklkvvklkkvkckckkkkvki4=   $<0iffjkjfjjjjfffi0873JJJJJJJJJJJJJJJJJJJJ",
"JJJJJJJJJJJJJJJJJJJJJjvkj= eckkkkkkkkkkkkkhkkkkkkkkkkkjr8,#   $:3477773,:=&-10eJJJJJJJJJJJJJJJJJJJJJ",
"JJJJJJJJJJJJJJJJJJJJJJjjca@ ikjkkkkkkkkkkkjkkkkkkjjjjjjjkffi83:=@X..O$-,40ikjJJJJJJJJJJJJJJJJJJJJJJJ",
"JJJJJJJJJJJJJJJJJJJJJJJJjca  pkjjjjjjjkjjkjjjjjjjjjjjjaaffdjjjffdfffaffjkkjfJJJJJJJJJJJJJJJJJJJJJJJJ",
"JJJJJJJJJJJJJJJJJJJJJJJJJJjf+ pkjjjjjjjjjjjjjjjjdjdajfajdddfffjjdffjfffkjfJJJJJJJJJJJJJJJJJJJJJJJJJJ",
"JJJJJJJJJJJJJJJJJJJJJJJJJJJJr= ekjddjdjajdjdddddadddfjadddddfdffddfffcffJJJJJJJJJJJJJJJJJJJJJJJJJJJJ",
"JJJJJJJJJJJJJJJJJJJJJJJJJJJJJJ% 3djdadddaddaddddddddaaddddddddffddfcffJJJJJJJJJJJJJJJJJJJJJJJJJJJJJJ",
"JJJJJJJJJJJJJJJJJJJJJJJJJJJJJJJJO>ikjffffffffjffffffddffffjdfffkcffJJJJJJJJJJJJJJJJJJJJJJJJJJJJJJJJJ",
"JJJJJJJJJJJJJJJJJJJJJJJJJJJJJJJJJJJrffckjjffjfddffffddfffffkkkffJJJJJJJJJJJJJJJJJJJJJJJJJJJJJJJJJJJJ",
"JJJJJJJJJJJJJJJJJJJJJJJJJJJJJJJJJJJJJJJfjffkkkkkkkkkckkkkjfffJJJJJJJJJJJJJJJJJJJJJJJJJJJJJJJJJJJJJJJ",
"JJJJJJJJJJJJJJJJJJJJJJJJJJJJJJJJJJJJJJJJJJJJJffdffffddJJJJJJJJJJJJJJJJJJJJJJJJJJJJJJJJJJJJJJJJJJJJJJ"
};
